<?xml version="1.0" encoding="UTF-8"?><svg id="Layer_2" xmlns="http://www.w3.org/2000/svg" xmlns:xlink="http://www.w3.org/1999/xlink" viewBox="0 0 441.3 147.44"><defs><style>.cls-1{fill:url(#radial-gradient);stroke-width:0px;}</style><radialGradient id="radial-gradient" cx="220.65" cy="73.72" fx="220.65" fy="73.72" r="247.7" gradientUnits="userSpaceOnUse"><stop offset="0" stop-color="#8dc63f"/><stop offset=".35" stop-color="#b7bd3f"/><stop offset=".78" stop-color="#e8b33f"/><stop offset="1" stop-color="#fbb040"/></radialGradient></defs><g id="Layer_1-2"><path class="cls-1" d="M441.3,101.82v.14c0,16.86-8.79,32.66-23.41,41.06-.14.08-.28.16-.42.24-4.97,2.79-10.61,4.18-16.31,4.18h-129.72c15.4-8.67,27.45-22.59,33.72-39.33h84.37c2.87,0,5.55-1.45,7.12-3.85,1.12-1.72,1.77-3.78,1.77-5.98s-.65-4.26-1.77-5.98l-.04-.06c-1.66-2.55-4.46-4.12-7.5-4.2l-96.04-2.45c-6.49-.17-12.94-1.19-19.1-3.22-8.91-2.94-17.71-7.57-23.05-12.91-12.77-12.77-7.27-31.77-35.27-31.77-8.08,0-66.34-.26-66.34-.26l-.24,55.58c-.02,4.95-.86,9.88-2.59,14.52-.08.2-.15.39-.22.57-7.25,18.18-22.78,32.17-41.94,37.3-4.04,1.09-8.25,1.78-12.58,2.03H0l26.69-33.6,3.6-4.53.96-1.2h46.9c6.79,0,13.39-2.52,18.29-7.23.07-.07.15-.14.22-.21,5-4.9,7.65-11.71,7.65-18.71V0h118.07c5.17.2,10.21.9,15.06,2.07,6.53,1.57,12.73,3.99,18.46,7.13,12.09,6.6,22.13,16.4,28.94,28.24,1.83,3.19,3.43,6.52,4.78,9.98,2.48,6.39,8.51,10.69,15.36,10.69h86.86c16.68,0,32.41,7.94,42.15,21.48.13.18.26.37.39.55,4.51,6.33,6.93,13.91,6.93,21.68ZM284.92,105.27c-16.32-.68-31.3-6.55-43.34-15.98-.02-.02-.05-.04-.07-.06-.33.71-.68,1.41-1.06,2.1,0,0,0,.01-.01.01-1.39,2.58-3.08,4.97-5.02,7.13-5.46,6.07-13.31,9.43-21.48,9.43h-51.02c-.21.71-.43,1.42-.67,2.12-1.07,3.23-2.37,6.37-3.87,9.38-3.02,6.1-6.87,11.71-11.39,16.69-3.79,4.19-8.06,7.93-12.72,11.14h85.79c13.46-.5,26-4.48,36.73-11.05,11.28-6.91,20.56-16.68,26.78-28.28.47-.87.92-1.74,1.35-2.63ZM306.86,37.79h101.69L440.12.35h-166.45c14.95,8.23,26.77,21.46,33.19,37.44Z"/></g></svg>